<svg width="18" height="18" viewBox="0 0 18 18" fill="none" xmlns="http://www.w3.org/2000/svg">
<path d="M6.86441 5.59091H10.8305M6.86441 11.5H10.8305M6.86441 8.54545H10.8305M13.9153 6.95455V3.09091C13.9153 2.21227 14.6058 1.5 15.4576 1.5C16.3095 1.5 17 2.21227 17 3.09091V6.59091C17 6.71819 17 6.78184 16.976 6.83045C16.9549 6.87322 16.9212 6.90799 16.8797 6.92977C16.8326 6.95455 16.7709 6.95455 16.6475 6.95455H13.9153ZM13.9153 6.95455V16.5L11.4915 15.1364L8.84746 16.5L6.20339 15.1364L4 16.5L4 3.09091C4 2.21227 4.69055 1.5 5.54238 1.5H15.2373" stroke="black" stroke-width="1.2" stroke-linecap="round" stroke-linejoin="round"/>
</svg>
